<svg xmlns="http://www.w3.org/2000/svg" width="17.996" height="17.998" viewBox="0 0 17.996 17.998"><g transform="translate(-35.432 0.068)"><g transform="translate(35.432 -0.068)"><path d="M0,8.823A.929.929,0,0,1,.7,8.14a1.424,1.424,0,0,1,.281-.02H8.12V7.907c0-2.267.009-4.533-.007-6.8A1,1,0,0,1,8.823,0h.352a.924.924,0,0,1,.682.7,1.571,1.571,0,0,1,.02.3q0,3.443,0,6.89v.232h.214c2.267,0,4.533.009,6.8-.007A1,1,0,0,1,18,8.824v.352a.927.927,0,0,1-.7.682,1.566,1.566,0,0,1-.3.02H9.878v.214c0,2.267-.009,4.533.006,6.8A1.006,1.006,0,0,1,9.175,18H8.823a.931.931,0,0,1-.683-.7,1.461,1.461,0,0,1-.019-.281q0-3.452,0-6.9V9.877H7.908c-2.267,0-4.533-.009-6.8.006A1.006,1.006,0,0,1,0,9.174Z" fill="#f9fbfc"/></g></g></svg>