<svg xmlns="http://www.w3.org/2000/svg" width="72" height="72" viewBox="0 0 72 72"><g transform="translate(-1795 -393)"><circle cx="36" cy="36" r="36" transform="translate(1795 393)" fill="#156a86"/><g transform="translate(1815.004 409)"><g transform="translate(-0.004 0)"><path d="M16.913,0A16.975,16.975,0,0,1,33.46,13.553c1.31,7.129-1.05,12.916-6.851,17.26a24.915,24.915,0,0,0-6.656,7.309c-.454.771-.91,1.542-1.38,2.3a1.876,1.876,0,0,1-3.338-.012A39.527,39.527,0,0,0,11.545,35a38.042,38.042,0,0,0-5.223-4.844A16.328,16.328,0,0,1,.058,18.415,16.843,16.843,0,0,1,13.854.335C14.858.145,15.891.108,16.913,0ZM9.391,16.993a7.508,7.508,0,1,0,2.219-5.348,7.527,7.527,0,0,0-2.219,5.348Z" transform="translate(0.004 0)" fill="#fff"/></g></g></g></svg>