<svg xmlns="http://www.w3.org/2000/svg" width="24.302" height="24.302" viewBox="0 0 24.302 24.302"><g transform="translate(0.1 0.1)"><g transform="translate(0 2.008)"><path d="M20.587,42.667h-1a.5.5,0,1,0,0,1h1A2.513,2.513,0,0,1,23.1,46.182V61.245a2.513,2.513,0,0,1-2.511,2.511H3.515A2.513,2.513,0,0,1,1,61.245V46.182a2.513,2.513,0,0,1,2.511-2.511h1a.5.5,0,1,0,0-1h-1A3.519,3.519,0,0,0,0,46.182V61.245A3.519,3.519,0,0,0,3.515,64.76H20.587A3.519,3.519,0,0,0,24.1,61.245V46.182A3.519,3.519,0,0,0,20.587,42.667Z" transform="translate(0 -42.667)" fill="#156985"/><path d="M3.515,42.567h1a.6.6,0,1,1,0,1.2h-1A2.413,2.413,0,0,0,1.1,46.182V61.245a2.413,2.413,0,0,0,2.411,2.411H20.587A2.413,2.413,0,0,0,23,61.245V46.182a2.413,2.413,0,0,0-2.411-2.411h-1a.6.6,0,1,1,0-1.2h1A3.619,3.619,0,0,1,24.2,46.182V61.245a3.619,3.619,0,0,1-3.615,3.615H3.515A3.619,3.619,0,0,1-.1,61.245V46.182A3.619,3.619,0,0,1,3.515,42.567Zm1,1a.4.4,0,1,0,0-.8h-1A3.419,3.419,0,0,0,.1,46.182V61.245A3.419,3.419,0,0,0,3.515,64.66H20.587A3.419,3.419,0,0,0,24,61.245V46.182a3.419,3.419,0,0,0-3.415-3.415h-1a.4.4,0,1,0,0,.8h1A2.614,2.614,0,0,1,23.2,46.182V61.245a2.614,2.614,0,0,1-2.611,2.611H3.515A2.614,2.614,0,0,1,.9,61.245V46.182a2.613,2.613,0,0,1,2.611-2.611Z" transform="translate(0 -42.667)" fill="#156985"/></g><g transform="translate(8.034 2.008)"><path d="M178.2,42.667h-7.03a.5.5,0,1,0,0,1h7.03a.5.5,0,1,0,0-1Z" transform="translate(-170.666 -42.667)" fill="#156985"/><path d="M171.168,42.567h7.03a.6.6,0,1,1,0,1.2h-7.03a.6.6,0,1,1,0-1.2Zm7.03,1a.4.4,0,1,0,0-.8h-7.03a.4.4,0,1,0,0,.8Z" transform="translate(-170.666 -42.667)" fill="#156985"/></g><g transform="translate(0 7.03)"><path d="M23.6,149.333H.5a.5.5,0,1,0,0,1H23.6a.5.5,0,1,0,0-1Z" transform="translate(0 -149.333)" fill="#156985"/><path d="M.5,149.233H23.6a.6.6,0,1,1,0,1.2H.5a.6.6,0,0,1,0-1.2Zm23.1,1a.4.4,0,1,0,0-.8H.5a.4.4,0,0,0,0,.8Z" transform="translate(0 -149.333)" fill="#156985"/></g><g transform="translate(6.025)"><path d="M128.5,0a.5.5,0,0,0-.5.5V4.519a.5.5,0,1,0,1,0V.5A.5.5,0,0,0,128.5,0Z" transform="translate(-128)" fill="#156985"/><path d="M128.5-.1a.6.6,0,0,1,.6.6V4.519a.6.6,0,1,1-1.2,0V.5A.6.6,0,0,1,128.5-.1Zm0,5.021a.4.4,0,0,0,.4-.4V.5a.4.4,0,1,0-.8,0V4.519A.4.4,0,0,0,128.5,4.921Z" transform="translate(-128)" fill="#156985"/></g><g transform="translate(17.072)"><path d="M363.168,0a.5.5,0,0,0-.5.5V4.519a.5.5,0,0,0,1,0V.5A.5.5,0,0,0,363.168,0Z" transform="translate(-362.666)" fill="#156985"/><path d="M363.168-.1a.6.6,0,0,1,.6.6V4.519a.6.6,0,0,1-1.2,0V.5A.6.6,0,0,1,363.168-.1Zm0,5.021a.4.4,0,0,0,.4-.4V.5a.4.4,0,1,0-.8,0V4.519A.4.4,0,0,0,363.168,4.921Z" transform="translate(-362.666)" fill="#156985"/></g><g transform="translate(6.025 11.047)"><path d="M132.015,239.186A2.51,2.51,0,1,0,128,237.178a.5.5,0,1,0,1,0,1.506,1.506,0,1,1,1.506,1.506h-1a.5.5,0,0,0,0,1h1A1.506,1.506,0,1,1,129,241.195a.5.5,0,1,0-1,0,2.511,2.511,0,1,0,4.015-2.008Z" transform="translate(-128 -234.667)" fill="#156985"/><path d="M130.511,243.805a2.613,2.613,0,0,1-2.611-2.611.6.6,0,1,1,1.2,0,1.406,1.406,0,1,0,1.406-1.406h-1a.6.6,0,0,1,0-1.2h1a1.406,1.406,0,1,0-1.406-1.406.6.6,0,0,1-1.2,0,2.611,2.611,0,1,1,4.276,2.008,2.609,2.609,0,0,1-1.666,4.619Zm-2.008-3.013a.4.4,0,0,0-.4.4,2.411,2.411,0,1,0,3.855-1.928l-.107-.08.107-.08a2.41,2.41,0,1,0-3.855-1.928.4.4,0,1,0,.8,0,1.606,1.606,0,1,1,1.606,1.606h-1a.4.4,0,0,0,0,.8h1a1.606,1.606,0,1,1-1.606,1.606A.4.4,0,0,0,128.5,240.792Z" transform="translate(-128 -234.667)" fill="#156985"/></g><g transform="translate(13.056 11.046)"><path d="M280.052,234.7a.5.5,0,0,0-.547.108l-2.008,2.008a.5.5,0,0,0,.71.71l1.151-1.151V243.2a.5.5,0,0,0,1,0v-8.034A.5.5,0,0,0,280.052,234.7Z" transform="translate(-277.349 -234.661)" fill="#156985"/><path d="M279.859,234.561h0a.6.6,0,0,1,.6.6V243.2a.6.6,0,0,1-1.2,0v-6.58l-.98.98a.6.6,0,0,1-.851-.851l2.008-2.008A.6.6,0,0,1,279.859,234.561Zm0,9.038a.4.4,0,0,0,.4-.4v-8.034a.4.4,0,0,0-.4-.4h0a.4.4,0,0,0-.284.118l-2.008,2.008a.4.4,0,0,0,.569.569l1.322-1.322V243.2A.4.4,0,0,0,279.859,243.6Z" transform="translate(-277.349 -234.661)" fill="#156985"/></g><g transform="translate(13.055 19.08)"><path d="M281.852,405.333h-4.017a.5.5,0,1,0,0,1h4.017a.5.5,0,0,0,0-1Z" transform="translate(-277.333 -405.333)" fill="#156985"/><path d="M277.835,405.233h4.017a.6.6,0,1,1,0,1.2h-4.017a.6.6,0,1,1,0-1.2Zm4.017,1a.4.4,0,0,0,0-.8h-4.017a.4.4,0,0,0,0,.8Z" transform="translate(-277.333 -405.333)" fill="#156985"/></g></g></svg>