<svg xmlns="http://www.w3.org/2000/svg" width="10.98" height="10.973" viewBox="0 0 10.98 10.973"><g transform="translate(0.154 0.145)"><g transform="translate(-0.004)"><path d="M5.329,211.3H1.667a1.583,1.583,0,0,1-1.538-.987,1.862,1.862,0,0,1-.122-.606c-.017-.529-.011-1.058,0-1.587a.531.531,0,0,1,.717-.524.5.5,0,0,1,.344.436c.012.124.009.249.009.374v1.187c0,.438.2.634.63.634H8.964a.983.983,0,0,0,.271-.029.523.523,0,0,0,.367-.547c0-.5,0-1.008,0-1.512a.534.534,0,1,1,1.062-.116.556.556,0,0,1,.007.074c0,.587.011,1.175-.013,1.761a1.579,1.579,0,0,1-1.418,1.428c-.179.011-.358.011-.537.012Z" transform="translate(0.004 -200.624)"/><path d="M6.6,211.446H1.667a1.74,1.74,0,0,1-1.678-1.083,2.009,2.009,0,0,1-.132-.656c-.017-.54-.011-1.075,0-1.593a.691.691,0,0,1,.675-.708.69.69,0,0,1,.245.046.649.649,0,0,1,.44.562,3.166,3.166,0,0,1,.01.323v1.253c0,.353.13.484.48.484H9a.834.834,0,0,0,.2-.024.384.384,0,0,0,.257-.4c0-.335,0-.676,0-1.007v-.5a.685.685,0,1,1,1.369-.045c0,.18,0,.356,0,.532,0,.406,0,.826-.014,1.239a1.736,1.736,0,0,1-1.559,1.571c-.178.011-.357.012-.531.012H6.6ZM.527,207.705a.389.389,0,0,0-.375.411c-.006.515-.013,1.047,0,1.58a1.708,1.708,0,0,0,.112.558,1.428,1.428,0,0,0,1.4.891H8.718c.169,0,.344,0,.512-.011a1.421,1.421,0,0,0,1.278-1.284c.017-.407.015-.823.014-1.226v-.53a.41.41,0,0,0-.005-.05.385.385,0,0,0-.764.092c0,.167,0,.335,0,.5v1.009a.669.669,0,0,1-.475.69H9.272a1.139,1.139,0,0,1-.313.033H1.7a.693.693,0,0,1-.78-.784v-1.255a2.9,2.9,0,0,0-.008-.292.349.349,0,0,0-.248-.31.392.392,0,0,0-.137-.022Z" transform="translate(0.004 -200.624)" fill="#e1e2e2"/><path d="M98.329,6.7V.627a.849.849,0,0,1,.089-.381A.507.507,0,0,1,98.99.014a.528.528,0,0,1,.4.46,1.842,1.842,0,0,1,.01.188V6.7c.224-.221.428-.427.639-.624a.727.727,0,0,1,.248-.159.517.517,0,0,1,.606.228.525.525,0,0,1-.073.655c-.428.437-.861.871-1.292,1.306-.091.092-.181.185-.273.274a.525.525,0,0,1-.779,0L96.919,6.812a.534.534,0,1,1,.762-.747Z" transform="translate(-93.523)"/><path d="M98.864,8.707a.7.7,0,0,1-.493-.217c-.519-.521-1.044-1.049-1.558-1.572a.685.685,0,0,1-.007-.972.674.674,0,0,1,.478-.2.721.721,0,0,1,.5.217l.393.386V.632a1,1,0,0,1,.1-.447.638.638,0,0,1,.574-.33.745.745,0,0,1,.166.019.679.679,0,0,1,.517.591q.009.1.008.2v5.68c.131-.129.257-.253.387-.375a.867.867,0,0,1,.3-.189h.007a.667.667,0,0,1,.781.294.678.678,0,0,1-.1.838c-.317.324-.643.652-.959.97l-.4.4c-.067.069-.137.139-.208.208a.714.714,0,0,1-.486.216ZM97.283,6.042a.371.371,0,0,0-.265.116.383.383,0,0,0,.009.55c.514.522,1.038,1.05,1.557,1.571a.4.4,0,0,0,.281.129.412.412,0,0,0,.287-.13c.069-.067.137-.136.2-.2l.4-.4c.315-.317.641-.646.959-.97a.378.378,0,0,0,.054-.47.371.371,0,0,0-.319-.184.366.366,0,0,0-.111.017.573.573,0,0,0-.193.125c-.155.144-.3.29-.458.445L99.5,6.82l-.255.251V.662a1.709,1.709,0,0,0-.006-.174.378.378,0,0,0-.287-.327.441.441,0,0,0-.1-.011.334.334,0,0,0-.307.167.7.7,0,0,0-.072.31V7.059l-.9-.887A.423.423,0,0,0,97.283,6.042Z" transform="translate(-93.523)" fill="#e1e2e2"/></g></g></svg>