<svg xmlns="http://www.w3.org/2000/svg" width="11.8" height="11.8" viewBox="0 0 11.8 11.8"><g transform="translate(0.15 0.15)"><g transform="translate(0 0)"><path d="M9.816,1.684A5.75,5.75,0,0,0,1.684,9.816,5.713,5.713,0,0,0,5.75,11.5a.337.337,0,1,0,0-.674A5.076,5.076,0,1,1,10.826,5.75V7.1a1.016,1.016,0,0,1-2.033,0V5.75a3.046,3.046,0,1,0-.607,1.822A1.69,1.69,0,0,0,11.5,7.1V5.75A5.712,5.712,0,0,0,9.816,1.684ZM5.75,8.12A2.37,2.37,0,1,1,8.12,5.75,2.372,2.372,0,0,1,5.75,8.12Z" transform="translate(0 0)" fill="#606060"/><path d="M5.75-.15a5.9,5.9,0,0,1,5.9,5.9V7.1a1.84,1.84,0,0,1-3.513.766A3.164,3.164,0,0,1,5.75,8.943,3.193,3.193,0,1,1,8.943,5.75V7.1a.866.866,0,1,0,1.733,0V5.75A4.926,4.926,0,1,0,5.75,10.676a.487.487,0,0,1,0,.974A5.9,5.9,0,0,1,1.578,1.578,5.862,5.862,0,0,1,5.75-.15ZM9.81,8.643A1.542,1.542,0,0,0,11.35,7.1V5.75A5.6,5.6,0,0,0,1.79,1.79a5.6,5.6,0,0,0,3.96,9.56.187.187,0,0,0,0-.374A5.226,5.226,0,1,1,10.976,5.75V7.1a1.166,1.166,0,1,1-2.333,0V5.75a2.9,2.9,0,1,0-.577,1.732l.181-.241.084.289A1.548,1.548,0,0,0,9.81,8.643ZM5.75,3.23A2.52,2.52,0,1,1,3.23,5.75,2.522,2.522,0,0,1,5.75,3.23Zm0,4.739A2.22,2.22,0,1,0,3.53,5.75,2.222,2.222,0,0,0,5.75,7.97Z" transform="translate(0 0)" fill="#606060"/></g></g></svg>