<svg xmlns="http://www.w3.org/2000/svg" width="72" height="72" viewBox="0 0 72 72"><g transform="translate(-1795 -199)"><circle cx="36" cy="36" r="36" transform="translate(1795 199)" fill="#156a86"/><g transform="translate(1812.004 220)"><g transform="translate(-0.004 0)"><path d="M39.046,3.973A7.152,7.152,0,0,1,38.318,6.2a10.141,10.141,0,0,1-3.091,3.315Q29.17,13.744,23.1,17.959a17.044,17.044,0,0,1-2.042,1.18,3.462,3.462,0,0,1-3.392-.149,23.943,23.943,0,0,1-2.07-1.28Q9.78,13.671,3.978,9.606A10.149,10.149,0,0,1,.427,5.611a4.185,4.185,0,0,1,.56-4.546,2.589,2.589,0,0,1,1.823-1A7.119,7.119,0,0,1,3.646,0H35.39a3.487,3.487,0,0,1,3.316,2.018,6.636,6.636,0,0,1,.341,1.04Z" transform="translate(0.004 0)" fill="#fcfcfc"/><path d="M340.066,128.523c-.112-.1-.226-.2-.333-.31q-4.557-4.554-9.11-9.109c-.089-.089-.178-.178-.283-.3.122-.089.225-.178.336-.253,2.168-1.486,4.354-2.945,6.5-4.468,1.008-.717,1.932-1.555,2.894-2.338Z" transform="translate(-301.015 -101.83)" fill="#fcfcfc"/><path d="M14,222.447,25.05,211.4c.393.28.809.565,1.213.865A16.52,16.52,0,0,0,30.1,214.5a6.094,6.094,0,0,0,4.77-.156,21.645,21.645,0,0,0,3.974-2.454c.227-.16.452-.323.647-.462L50.54,222.471a3.087,3.087,0,0,1-1.829.8,5.832,5.832,0,0,1-.647.025q-15.777,0-31.556,0A3.546,3.546,0,0,1,14,222.447Z" transform="translate(-12.757 -192.634)" fill="#fcfcfc"/><path d="M.47,112.82c2.893,2.532,6.233,4.438,9.332,6.685.113.081.227.159.3.213L.47,129.347Z" transform="translate(-0.428 -102.805)" fill="#fcfcfc"/></g></g></g></svg>