<svg xmlns="http://www.w3.org/2000/svg" width="11.129" height="11.129" viewBox="0 0 11.129 11.129"><g transform="translate(0.008 -0.025)"><g transform="translate(-0.001 0.002)"><path d="M7.858,7.476A2.95,2.95,0,0,1,5.37,8.554a2.858,2.858,0,0,1-1.956-.91,2.968,2.968,0,1,1,4.37-4.015V3.063A.644.644,0,0,1,7.8,2.892a.364.364,0,0,1,.4-.258.375.375,0,0,1,.329.337v4.04a.787.787,0,0,0,.841.8.764.764,0,0,0,.706-.53A4.552,4.552,0,0,0,10.3,4.749,4.667,4.667,0,0,0,7.015,1.008a4.814,4.814,0,1,0,.952,8.76.754.754,0,0,1,.254-.1.347.347,0,0,1,.379.254.362.362,0,0,1-.167.428A5.372,5.372,0,0,1,7.2,10.9,5.564,5.564,0,1,1,10.78,7.5a1.533,1.533,0,0,1-2.9.032A.632.632,0,0,0,7.858,7.476ZM3.339,5.6A2.225,2.225,0,1,0,4,4.015,2.223,2.223,0,0,0,3.339,5.6Z" transform="translate(0.001 -0.002)"/></g></g></svg>