<svg xmlns="http://www.w3.org/2000/svg" width="145.069" height="38.523" viewBox="0 0 145.069 38.523"><g transform="translate(8922.674 10883.586)"><g transform="translate(-8867.557 -10866.938)"><path d="M53.29,93.045c-.053-.141-.106-.264-.152-.381-.082-.217-.164-.44-.252-.657s-.211-.545-.323-.821a1.173,1.173,0,0,0-.082-.217.211.211,0,0,0-.1-.088c-.176-.076-.352-.141-.534-.211l-.651-.252-.745-.287-.111-.047h0l1.056-.41.932-.358a.276.276,0,0,0,.164-.205c.1-.252.2-.5.293-.756s.217-.586.323-.838c.047-.117.1-.235.152-.375.029.064.047.117.07.17.135.358.276.715.416,1.067s.205.551.317.821a.229.229,0,0,0,.117.106c.164.076.34.141.51.205l.633.246.844.328h.047l-.422.17-.627.24-.856.334a.633.633,0,0,1-.111.041c-.111.029-.141.123-.176.217-.094.246-.193.5-.287.751l-.328.838A1.411,1.411,0,0,1,53.29,93.045Z" transform="translate(-50.34 -87.14)"/></g><path d="M154.82,93.045c-.053-.141-.106-.264-.152-.381-.082-.217-.164-.44-.252-.657s-.211-.545-.323-.821a1.177,1.177,0,0,0-.082-.217.229.229,0,0,0-.094-.088l-.539-.211-.651-.252-.739-.287-.117-.047h0l1.056-.41.932-.358a.276.276,0,0,0,.164-.205c.1-.252.2-.5.293-.756s.217-.586.322-.838c.047-.117.1-.235.152-.375a.437.437,0,0,0,.07.17c.141.358.276.715.416,1.067s.205.551.317.821a.228.228,0,0,0,.117.106c.164.076.34.141.51.205l.633.246.844.328h.047l-.422.17-.627.24-.856.334a.634.634,0,0,1-.111.041c-.111.029-.141.123-.176.217-.094.246-.194.5-.287.751l-.328.838A1.221,1.221,0,0,1,154.82,93.045Z" transform="translate(-8959.892 -10954.078)"/><path d="M55.521,114.072a1.214,1.214,0,0,1-.3.915,1.407,1.407,0,0,1-1.765,0,1.261,1.261,0,0,1-.381-.915v-8.666A1.308,1.308,0,0,1,54.3,104.18a1.267,1.267,0,0,1,.921.381,1.173,1.173,0,0,1,.3.844Z" transform="translate(-8919.027 -10961.125)"/><path d="M130.176,111.005a2.228,2.228,0,0,0,.153.686,3.844,3.844,0,0,0,.534.616,2.932,2.932,0,0,0,.844.381,2.287,2.287,0,0,0,1,.152h7.735a3.723,3.723,0,0,0,1.378-.229,2.686,2.686,0,0,0,.844-.768,2.068,2.068,0,0,0,.457-.921,4.459,4.459,0,0,0,.153-.991v-4.527a1.242,1.242,0,0,1,.387-.844,1.226,1.226,0,0,1,.844-.381,1.308,1.308,0,0,1,1.226,1.225v4.368a5.582,5.582,0,0,1-.3,1.917,5.144,5.144,0,0,1-1,1.759,5.278,5.278,0,0,1-1.536,1.378,3.982,3.982,0,0,1-1.994.463h-8.878a4.046,4.046,0,0,1-1.689-.311,4.48,4.48,0,0,1-1.378-.991,4.3,4.3,0,0,1-.921-1.384,3.916,3.916,0,0,1-.311-1.607,1.132,1.132,0,0,1,.311-.844,1.414,1.414,0,0,1,.921-.387,1.232,1.232,0,0,1,.839.387A1.208,1.208,0,0,1,130.176,111.005Z" transform="translate(-8949.901 -10961.124)"/><path d="M17.4,109.772a6.11,6.11,0,0,0-.152-1.073,2.932,2.932,0,0,0-.457-1,2.175,2.175,0,0,0-.844-.768,2.767,2.767,0,0,0-1.46-.3H5.274a2.75,2.75,0,0,0-1.454.3,2.832,2.832,0,0,0-.844.768,2.931,2.931,0,0,0-.457,1,5.488,5.488,0,0,0-.076,1.073v4.3a1.266,1.266,0,0,1-.387.915,1.132,1.132,0,0,1-.844.311,1.22,1.22,0,0,1-.921-.311A1.214,1.214,0,0,1,0,114.07v-4.3a6.063,6.063,0,0,1,.3-1.994,7.986,7.986,0,0,1,.921-1.759,4.756,4.756,0,0,1,1.46-1.308,3.518,3.518,0,0,1,1.994-.534H15.406a3.7,3.7,0,0,1,1.841.534,5.964,5.964,0,0,1,1.384,1.384,6.408,6.408,0,0,1,.915,1.759,7.534,7.534,0,0,1,.311,1.917v4.3a1.243,1.243,0,0,1-.387.915,1.126,1.126,0,0,1-.839.311A1.085,1.085,0,0,1,17.4,114.07Z" transform="translate(-8897.07 -10961.124)"/><path d="M93.857,109.772A6.1,6.1,0,0,0,93.7,108.7a2.826,2.826,0,0,0-.463-1,2.117,2.117,0,0,0-.839-.768,2.768,2.768,0,0,0-1.46-.3h-9.2a2.768,2.768,0,0,0-1.46.3,2.855,2.855,0,0,0-1.3,1.759,5.488,5.488,0,0,0-.076,1.073v4.3a1.261,1.261,0,0,1-.381.915,1.173,1.173,0,0,1-.844.311,1.085,1.085,0,0,1-1.226-1.225v-4.3a6.062,6.062,0,0,1,.3-1.994,7.74,7.74,0,0,1,.921-1.759,4.738,4.738,0,0,1,1.437-1.3,3.571,3.571,0,0,1,1.994-.534H91.845a3.712,3.712,0,0,1,1.841.534,5.933,5.933,0,0,1,1.378,1.384,6.262,6.262,0,0,1,.921,1.759,7.8,7.8,0,0,1,.311,1.917v4.3a1.266,1.266,0,0,1-.387.915,1.173,1.173,0,0,1-.844.311,1.085,1.085,0,0,1-1.226-1.225Z" transform="translate(-8928.693 -10961.125)"/><path d="M190.7,113.228a1.336,1.336,0,0,0-.3-.381l-6.216-8.279a2.493,2.493,0,0,0-1.073-.921,3.372,3.372,0,0,0-1.454-.387,3.448,3.448,0,0,0-1.536.387,3.619,3.619,0,0,0-1.173,1L172.785,113a.967.967,0,0,0-.305.692,1.261,1.261,0,0,0,.381.915,1.173,1.173,0,0,0,.844.311,1.337,1.337,0,0,0,1-.463l1.964-2.615h9.722a1.84,1.84,0,0,0,.252,0l1.941,2.621a1.331,1.331,0,0,0,1,.463,1.044,1.044,0,0,0,.844-.311,1.026,1.026,0,0,0,.381-.915A.979.979,0,0,0,190.7,113.228Zm-5.893-3.835h-6.38l2.516-3.307a.809.809,0,0,1,.709-.293h.065a.862.862,0,0,1,.475.229h0Z" transform="translate(-8968.416 -10960.745)"/><path d="M72,45.22c.456,1.97,1.04,3.908,1.687,5.814a39.586,39.586,0,0,0,2.325,5.554,15.681,15.681,0,0,0,3.552,4.765,6.288,6.288,0,0,0,5.545,1.509,6.11,6.11,0,0,1-3.023.132,7.013,7.013,0,0,1-2.736-1.368A15.612,15.612,0,0,1,75.62,56.8,39.036,39.036,0,0,1,72,45.22Z" transform="translate(-8994.674 -10908.187)"/><path d="M79.19,67.11A7.956,7.956,0,0,0,82.778,69.8a11.627,11.627,0,0,0,4.505.6c-.383.073-.766.16-1.154.223a11.317,11.317,0,0,1-1.181.046,7.92,7.92,0,0,1-2.335-.456A6.115,6.115,0,0,1,79.19,67.11Z" transform="translate(-8998.587 -10920.096)"/><path d="M78.32,66.17a9.817,9.817,0,0,0,2.134,2.891,8.746,8.746,0,0,0,3,1.869,10.716,10.716,0,0,0,3.506.606c.6.032,1.2-.059,1.824-.082l1.824-.264-1.769.488c-.611.068-1.217.2-1.824.21a10.159,10.159,0,0,1-3.648-.529A8.363,8.363,0,0,1,78.32,66.17Z" transform="translate(-8998.113 -10919.584)"/><path d="M81,70.88a11.935,11.935,0,0,0,1.669,2.28,8.153,8.153,0,0,0,2.189,1.705,6.078,6.078,0,0,0,2.636.78,9.968,9.968,0,0,0,2.813-.2A7.3,7.3,0,0,1,87.475,76a6,6,0,0,1-2.827-.72A8.057,8.057,0,0,1,81,70.88Z" transform="translate(-8999.571 -10922.146)"/><path d="M77.34,62.15a5.413,5.413,0,0,0,1.614,2.421A7.108,7.108,0,0,0,81.48,65.98a12.633,12.633,0,0,0,2.863.661c.985.109,1.974.16,2.977.2L85.848,67H84.335a11.586,11.586,0,0,1-2.987-.579,7.022,7.022,0,0,1-2.636-1.6A4.706,4.706,0,0,1,77.34,62.15Z" transform="translate(-8997.58 -10917.396)"/><path d="M72,22.276a12.065,12.065,0,0,1,1.45-5.513,11.723,11.723,0,0,1,3.908-4.345,12.357,12.357,0,0,1,5.472-1.97,16.415,16.415,0,0,1,2.877-.068,26.8,26.8,0,0,1,2.8.5c-.948.128-1.869.15-2.786.246l-1.368.223a7.2,7.2,0,0,0-1.327.264c-.456.123-.862.242-1.295.342a9.586,9.586,0,0,0-1.24.488,6.306,6.306,0,0,0-1.19.561,7.83,7.83,0,0,0-1.126.675A16.641,16.641,0,0,0,72,22.276Z" transform="translate(-8994.674 -10889.215)"/><path d="M120.57,9.548a6.442,6.442,0,0,1,4.277-2.421,11.436,11.436,0,0,1,2.526-.119c.42.023.834.1,1.254.141a6.5,6.5,0,0,0,1.072.027,3.771,3.771,0,0,0,3.114-2.567A16.868,16.868,0,0,0,133.989,0a10.842,10.842,0,0,1-.351,4.938,5.549,5.549,0,0,1-1.368,2.28,4.1,4.1,0,0,1-2.5,1.117,7.807,7.807,0,0,1-1.368-.068L127.236,8.1a13.679,13.679,0,0,0-2.325-.078A7.492,7.492,0,0,0,120.57,9.548Z" transform="translate(-9021.098 -10883.586)"/><path d="M145.541,1.92a10.891,10.891,0,0,1,0,3.128,8.417,8.417,0,0,1-.98,3.037,4.619,4.619,0,0,1-2.426,2.152,4.756,4.756,0,0,1-3.155-.155,6.139,6.139,0,0,0,2.936-.388A4.738,4.738,0,0,0,143.9,7.706,17.446,17.446,0,0,0,145.541,1.92Z" transform="translate(-9031.113 -10884.63)"/><path d="M80.754,55.229A7.454,7.454,0,0,1,82.71,54.8a1.173,1.173,0,0,1,.182,0c.164.041,1.012.237,1.961.456h.1l.233.055h.082l.556.109a6.38,6.38,0,0,0,.789.064c.419.036.757.059,1.072.073h.584a22.034,22.034,0,0,0,4.355-.429A.57.57,0,0,0,92.518,54h-.857l.26-.214c.1-.082.21-.169.31-.26l.05-.046a9.676,9.676,0,0,0,2.412-5.836.561.561,0,0,0-.219-.488.579.579,0,0,0-.529-.091l-2.043.684A45.171,45.171,0,0,1,83.9,48.918h-.141a19.624,19.624,0,0,1-7.077-1.824.588.588,0,0,0-.739.26c-.091.178-.848,1.824.871,5.016l.119.205c.1.169.2.337.315.5a8.508,8.508,0,0,0,1.509,1.66l.059.046A2.38,2.38,0,0,0,80.754,55.229Zm-1.692-.743A8.124,8.124,0,0,1,77.617,52.9c-.109-.16-.2-.319-.3-.456l-.1-.182c-1.637-3.055-.912-4.532-.871-4.6l.05-.091.1.041a19.531,19.531,0,0,0,7.259,1.824H83.9a45.7,45.7,0,0,0,8.13-1.186l2.225-.743v.169a9.192,9.192,0,0,1-2.28,5.558c-.15.132-.292.251-.456.369a6.159,6.159,0,0,1-1.628.912c.871,0,1.755,0,2.635-.032v.228a21.733,21.733,0,0,1-4.263.42h-.57c-.319,0-.657-.036-1.062-.073a6.111,6.111,0,0,1-.725-.055L85.35,54.9h-.1a1.315,1.315,0,0,1-.182-.041l-.137-.032c-1.04-.219-1.947-.433-1.956-.433a1.264,1.264,0,0,0-.283-.027,8.053,8.053,0,0,0-2.07.456,1.892,1.892,0,0,1-1.559-.342Z" transform="translate(-8996.684 -10909.177)"/><path d="M103.584,50.87c-1.869.584-6.352,1.751-8.294,2.353.657.242.657.242.67.625A2.248,2.248,0,0,0,97.83,56a2.28,2.28,0,0,0,2.5-1.295,2.385,2.385,0,0,0-.16-2.248Zm-4.838,3.424a.638.638,0,0,1-.684-.657.684.684,0,0,1,.7-.657.675.675,0,0,1,.689.684.657.657,0,0,1-.707.629Z" transform="translate(-9007.345 -10911.262)"/><path d="M84.321,54.234,80.468,52.52l-.068.1a1.322,1.322,0,0,0,.228.315.912.912,0,0,1,.337,1.053,2.421,2.421,0,0,0,.666,2.28,1.4,1.4,0,0,0,2.325-.137,2.435,2.435,0,0,0,.365-1.728A.761.761,0,0,1,84.321,54.234Zm-1.249,1.076c-.337.082-.524-.173-.538-.515s.119-.657.5-.611c.219.027.415.287.757.543-.328.292-.5.533-.72.584Z" transform="translate(-8999.245 -10912.157)"/></g></svg>