<svg xmlns="http://www.w3.org/2000/svg" width="18.652" height="11.882" viewBox="0 0 18.652 11.882"><g transform="translate(0 0.002)"><g transform="translate(0 -0.002)"><path d="M0,5.832a3.935,3.935,0,0,1,.274-.448A16.521,16.521,0,0,1,4.941,1.271,8.954,8.954,0,0,1,8.835.014a7.952,7.952,0,0,1,3.687.668,13.929,13.929,0,0,1,4.412,3.093c.533.537,1.019,1.122,1.512,1.7a.635.635,0,0,1,0,.934,16.575,16.575,0,0,1-4.722,4.19A8.579,8.579,0,0,1,9,11.872a8.347,8.347,0,0,1-3.332-.885,16.013,16.013,0,0,1-5.484-4.6A2.2,2.2,0,0,1,0,6.052Zm1.39.1c.068.082.115.145.169.2.567.582,1.11,1.191,1.709,1.737a11.213,11.213,0,0,0,3.939,2.421,6.334,6.334,0,0,0,2.759.33,8.221,8.221,0,0,0,3.343-1.2A15.475,15.475,0,0,0,16.847,6.41c.137-.152.266-.31.413-.481-.358-.387-.694-.77-1.049-1.132a13.182,13.182,0,0,0-4.116-2.952,7.029,7.029,0,0,0-2.476-.608,7.223,7.223,0,0,0-3.7.906A13.653,13.653,0,0,0,2.483,4.75C2.11,5.128,1.759,5.53,1.39,5.928Z" transform="translate(0 0.002)" fill="#606060"/><path d="M131,53.2a3.685,3.685,0,1,1-3.66-3.7A3.686,3.686,0,0,1,131,53.2Zm-1.229-.009a2.457,2.457,0,1,0-2.459,2.456,2.459,2.459,0,0,0,2.459-2.456Z" transform="translate(-117.988 -47.246)" fill="#606060"/></g></g></svg>