<svg xmlns="http://www.w3.org/2000/svg" width="186.942" height="130.143" viewBox="0 0 186.942 130.143"><g transform="translate(0.01)"><g transform="translate(-0.01)"><path d="M111.127,49.94H109.9a6.2,6.2,0,0,1-3.826,1.2c-.165,0-.284-.055-.44-.064a6.221,6.221,0,0,1-3.954,1.3,6.514,6.514,0,0,1-2.367-.459,6.092,6.092,0,0,1-4.221,1.551c-.2,0-.367-.064-.56-.073a6.624,6.624,0,0,1-2.872.624,6.422,6.422,0,0,1-2.633-.56,6.753,6.753,0,0,1-1.89.284,6.046,6.046,0,0,1-4.45-1.725,5.835,5.835,0,0,1-3.514-1.6v6.423a6.184,6.184,0,0,1,2.33,3.8,5.716,5.716,0,0,1,3.367,2.037,6.138,6.138,0,0,1,4-1.349h.138a6.615,6.615,0,0,1,1.936-.239,6.157,6.157,0,0,1,3.789,1.22,6.835,6.835,0,0,1,1.835-.257,6.285,6.285,0,0,1,3.193.826,6.423,6.423,0,0,1,2.982-.688h.128a5.964,5.964,0,0,1,4.808-2.33,6.487,6.487,0,0,1,3.037-5.716,7.533,7.533,0,0,1,.413-4.211Z" transform="translate(-6.522 -4.12)" fill="#191f1f"/><g transform="translate(46.196 79.952)"><path d="M54.955,96.379c-.083-.22-.165-.413-.239-.6-.128-.339-.257-.688-.395-1.028s-.33-.853-.5-1.285a1.836,1.836,0,0,0-.128-.339.33.33,0,0,0-.156-.138c-.275-.119-.55-.22-.835-.33l-1.018-.395-1.165-.45-.174-.073h0l1.652-.642,1.459-.56a.431.431,0,0,0,.257-.321c.156-.395.312-.789.459-1.184s.339-.918.5-1.312c.073-.183.156-.367.239-.587.046.1.073.184.11.266.211.56.431,1.119.651,1.67s.321.862.5,1.285a.358.358,0,0,0,.184.165c.257.119.532.22.8.321l.991.385,1.321.514h.073l-.661.266-.982.376-1.34.523a.982.982,0,0,1-.174.064c-.174.046-.22.193-.275.339-.147.385-.3.78-.45,1.174L55.139,95.8A2.208,2.208,0,0,1,54.955,96.379Z" transform="translate(-50.34 -87.14)" fill="#d3d3d3"/></g><path d="M156.485,96.379c-.083-.22-.165-.413-.239-.6-.128-.339-.257-.688-.395-1.028s-.33-.853-.5-1.285a1.836,1.836,0,0,0-.128-.339.358.358,0,0,0-.147-.138l-.844-.33-1.018-.395-1.156-.45-.184-.073h0l1.652-.642,1.459-.56a.431.431,0,0,0,.257-.321c.156-.395.312-.789.459-1.184s.339-.918.5-1.312c.073-.183.156-.367.239-.587a.683.683,0,0,0,.11.266c.22.56.431,1.119.651,1.67s.321.862.5,1.285a.358.358,0,0,0,.184.165c.257.119.532.22.8.321l.991.385,1.321.514h.073l-.661.266-.982.376-1.34.523a.981.981,0,0,1-.174.064c-.174.046-.22.193-.275.339-.147.385-.3.78-.45,1.174l-.514,1.312A1.91,1.91,0,0,1,156.485,96.379Z" transform="translate(-12.519 -7.188)" fill="#d3d3d3"/><path d="M56.905,119.658a1.9,1.9,0,0,1-.477,1.431,2.2,2.2,0,0,1-2.762,0,1.973,1.973,0,0,1-.6-1.431V106.1a2.046,2.046,0,0,1,1.918-1.918,1.982,1.982,0,0,1,1.44.6,1.835,1.835,0,0,1,.477,1.321Z" transform="translate(-4.369 -8.594)" fill="#d3d3d3"/><path d="M131.564,114.86a3.487,3.487,0,0,0,.239,1.074,6.018,6.018,0,0,0,.835.963,4.587,4.587,0,0,0,1.321.6,3.578,3.578,0,0,0,1.56.239h12.1a5.826,5.826,0,0,0,2.156-.358,4.2,4.2,0,0,0,1.321-1.2,3.239,3.239,0,0,0,.716-1.44,6.983,6.983,0,0,0,.239-1.551V106.1a1.945,1.945,0,0,1,.606-1.321,1.917,1.917,0,0,1,1.321-.6A2.046,2.046,0,0,1,155.9,106.1v6.835a8.736,8.736,0,0,1-.477,3,8.046,8.046,0,0,1-1.56,2.753,8.257,8.257,0,0,1-2.4,2.156,6.23,6.23,0,0,1-3.12.725H134.445a6.331,6.331,0,0,1-2.642-.486,7.01,7.01,0,0,1-2.156-1.551,6.725,6.725,0,0,1-1.441-2.165,6.129,6.129,0,0,1-.486-2.514,1.771,1.771,0,0,1,.486-1.321,2.211,2.211,0,0,1,1.441-.606,1.927,1.927,0,0,1,1.312.606A1.89,1.89,0,0,1,131.564,114.86Z" transform="translate(-10.527 -8.594)" fill="#d3d3d3"/><path d="M27.231,112.933a9.56,9.56,0,0,0-.239-1.679,4.588,4.588,0,0,0-.716-1.56,3.4,3.4,0,0,0-1.321-1.2,4.331,4.331,0,0,0-2.285-.477H8.257a4.3,4.3,0,0,0-2.275.477,4.432,4.432,0,0,0-1.321,1.2,4.587,4.587,0,0,0-.716,1.56,8.588,8.588,0,0,0-.119,1.679v6.725a1.982,1.982,0,0,1-.606,1.431,1.771,1.771,0,0,1-1.321.486,1.908,1.908,0,0,1-1.44-.486A1.9,1.9,0,0,1,0,119.658v-6.725a9.487,9.487,0,0,1,.477-3.12,12.5,12.5,0,0,1,1.44-2.753A7.441,7.441,0,0,1,4.2,105.015a5.505,5.505,0,0,1,3.12-.835h16.79a5.78,5.78,0,0,1,2.881.835,9.331,9.331,0,0,1,2.165,2.165,10.028,10.028,0,0,1,1.431,2.753,11.79,11.79,0,0,1,.486,3v6.725a1.945,1.945,0,0,1-.606,1.431,1.762,1.762,0,0,1-1.312.486,1.7,1.7,0,0,1-1.927-1.918Z" transform="translate(0.01 -8.594)" fill="#d3d3d3"/><path d="M103.69,112.933a9.561,9.561,0,0,0-.239-1.679,4.422,4.422,0,0,0-.725-1.56,3.312,3.312,0,0,0-1.312-1.2,4.331,4.331,0,0,0-2.285-.477h-14.4a4.331,4.331,0,0,0-2.285.477,4.468,4.468,0,0,0-2.037,2.753,8.589,8.589,0,0,0-.119,1.679v6.725a1.973,1.973,0,0,1-.6,1.431,1.835,1.835,0,0,1-1.321.486,1.7,1.7,0,0,1-1.918-1.918v-6.725a9.487,9.487,0,0,1,.477-3.12,12.111,12.111,0,0,1,1.44-2.753,7.414,7.414,0,0,1,2.248-2.037,5.588,5.588,0,0,1,3.12-.835h16.8a5.808,5.808,0,0,1,2.881.835,9.285,9.285,0,0,1,2.156,2.165,9.8,9.8,0,0,1,1.44,2.753,12.213,12.213,0,0,1,.486,3v6.725a1.982,1.982,0,0,1-.606,1.431,1.835,1.835,0,0,1-1.321.486,1.7,1.7,0,0,1-1.918-1.918Z" transform="translate(-6.297 -8.594)" fill="#d3d3d3"/><path d="M200.987,118.858a2.092,2.092,0,0,0-.477-.6l-9.726-12.955a3.9,3.9,0,0,0-1.679-1.44,5.276,5.276,0,0,0-2.275-.606,5.4,5.4,0,0,0-2.4.606,5.661,5.661,0,0,0-1.835,1.56L172.957,118.5a1.514,1.514,0,0,0-.477,1.083,1.973,1.973,0,0,0,.6,1.431,1.835,1.835,0,0,0,1.321.486,2.092,2.092,0,0,0,1.56-.725l3.074-4.092h15.212a2.856,2.856,0,0,0,.395,0l3.037,4.1a2.083,2.083,0,0,0,1.56.725,1.633,1.633,0,0,0,1.321-.486,1.606,1.606,0,0,0,.6-1.431,1.533,1.533,0,0,0-.165-.734Zm-9.221-6h-9.982l3.936-5.175a1.266,1.266,0,0,1,1.11-.459h.1a1.349,1.349,0,0,1,.743.358h0Z" transform="translate(-14.219 -8.518)" fill="#d3d3d3"/><path d="M104.188,56.879a1.321,1.321,0,0,1-1.422,1.285,1.285,1.285,0,0,1-1.376-1.321A1.367,1.367,0,0,1,102.8,55.53a1.34,1.34,0,0,1,1.385,1.349Z" transform="translate(-8.355 -4.581)" fill="#fff"/><path d="M87.613,57.261c-.651.551-.991,1.073-1.44,1.174-.67.165-1.046-.349-1.083-1.037s.239-1.321,1-1.229C86.539,56.224,86.925,56.747,87.613,57.261Z" transform="translate(-7.01 -4.633)" fill="#fff"/><path d="M72,45.22c.918,3.964,2.092,7.863,3.395,11.7a79.656,79.656,0,0,0,4.679,11.175,31.553,31.553,0,0,0,7.147,9.588,12.652,12.652,0,0,0,11.157,3.037,12.3,12.3,0,0,1-6.083.266,14.111,14.111,0,0,1-5.505-2.753c-3.276-2.587-5.505-6.138-7.505-9.716A78.548,78.548,0,0,1,72,45.22Z" transform="translate(-5.931 -3.73)" fill="#d3d3d3"/><path d="M79.19,67.11a16.011,16.011,0,0,0,7.221,5.4,23.4,23.4,0,0,0,9.065,1.211c-.771.147-1.541.321-2.321.45a22.763,22.763,0,0,1-2.376.092,15.937,15.937,0,0,1-4.7-.917A12.3,12.3,0,0,1,79.19,67.11Z" transform="translate(-6.524 -5.536)" fill="#d3d3d3"/><path d="M78.32,66.17a19.754,19.754,0,0,0,4.294,5.817,17.6,17.6,0,0,0,6.046,3.762,21.562,21.562,0,0,0,7.056,1.22c1.2.064,2.413-.119,3.67-.165l3.67-.532-3.56.982c-1.229.138-2.45.4-3.67.422a20.442,20.442,0,0,1-7.34-1.064A16.827,16.827,0,0,1,78.32,66.17Z" transform="translate(-6.452 -5.459)" fill="#d3d3d3"/><path d="M81,70.88a24.012,24.012,0,0,0,3.358,4.588,16.4,16.4,0,0,0,4.4,3.431,12.23,12.23,0,0,0,5.3,1.569,20.057,20.057,0,0,0,5.661-.4,14.68,14.68,0,0,1-5.7,1.11,12.074,12.074,0,0,1-5.689-1.45A16.212,16.212,0,0,1,81,70.88Z" transform="translate(-6.673 -5.847)" fill="#d3d3d3"/><path d="M77.34,62.15a10.891,10.891,0,0,0,3.248,4.872,14.3,14.3,0,0,0,5.083,2.835,25.424,25.424,0,0,0,5.762,1.33c1.982.22,3.973.321,5.991.4l-2.964.312H91.415a23.314,23.314,0,0,1-6.01-1.165,14.13,14.13,0,0,1-5.3-3.22A9.469,9.469,0,0,1,77.34,62.15Z" transform="translate(-6.371 -5.127)" fill="#d3d3d3"/><path d="M72,34.352a24.277,24.277,0,0,1,2.918-11.093,23.589,23.589,0,0,1,7.863-8.744,24.864,24.864,0,0,1,11.01-3.964,33.031,33.031,0,0,1,5.789-.138,53.93,53.93,0,0,1,5.634,1.009c-1.908.257-3.762.3-5.606.5l-2.753.45a14.488,14.488,0,0,0-2.67.532c-.918.248-1.734.486-2.606.688a19.29,19.29,0,0,0-2.5.982A12.689,12.689,0,0,0,86.689,15.7a15.754,15.754,0,0,0-2.266,1.358C78.514,20.9,74.532,27.269,72,34.352Z" transform="translate(-5.931 -0.853)" fill="#d3d3d3"/><path d="M120.57,19.213c1.89-2.753,5.285-4.312,8.606-4.872a23.011,23.011,0,0,1,5.083-.239c.844.046,1.679.2,2.523.284a13.075,13.075,0,0,0,2.156.055c2.853-.119,5.037-2.321,6.267-5.166A33.947,33.947,0,0,0,147.572,0a21.818,21.818,0,0,1-.706,9.937,11.166,11.166,0,0,1-2.753,4.588,8.258,8.258,0,0,1-5.037,2.248,15.708,15.708,0,0,1-2.753-.138l-2.34-.33a27.525,27.525,0,0,0-4.679-.156A15.075,15.075,0,0,0,120.57,19.213Z" transform="translate(-9.937)" fill="#d3d3d3"/><path d="M152.183,1.92a21.919,21.919,0,0,1,0,6.294,16.937,16.937,0,0,1-1.973,6.111,9.294,9.294,0,0,1-4.881,4.331,9.57,9.57,0,0,1-6.349-.312c2.092.046,4.156.11,5.909-.78a9.533,9.533,0,0,0,3.991-4C150.788,10.132,151.541,6.021,152.183,1.92Z" transform="translate(-11.456 -0.158)" fill="#676767" opacity="0.3"/><path d="M103.021,62.405a12.561,12.561,0,0,0,4.45-2.239c.294-.229.578-.468.862-.706a18.35,18.35,0,0,0,4.588-11.01l-4.165,1.385S98.378,52.3,92.038,52.221c-5.725-.064-11.928-2.486-14.68-3.67,0,0-1.523,2.918,1.743,9.019.266.44.514.918.807,1.321a16.516,16.516,0,0,0,2.835,3.12,3.67,3.67,0,0,0,2.991.578h0c1.523-.486,3.753-1.083,4.854-.835,0,0,1.835.431,3.927.918a4.294,4.294,0,0,1,.642.147l.193-.1,1.1.22a13.889,13.889,0,0,0,1.45.1c.7.064,1.4.119,2.119.147a43.031,43.031,0,0,0,9.661-.835C107.425,62.451,105.223,62.46,103.021,62.405ZM87.286,59.433a2.826,2.826,0,0,1-4.679.275,4.9,4.9,0,0,1-1.34-4.588A1.835,1.835,0,0,0,80.588,53a2.945,2.945,0,0,1-.459-.633l.138-.193,7.744,3.459a2.508,2.508,0,0,0,0,.33,4.9,4.9,0,0,1-.725,3.468Zm23.2-8.762-6.881,3.184a4.8,4.8,0,0,1,.321,4.523A4.588,4.588,0,0,1,98.9,60.983a4.523,4.523,0,0,1-3.762-4.321c0-.771,0-.771-1.349-1.257C97.708,54.194,106.728,51.845,110.489,50.67Z" transform="translate(-6.343 -3.997)" fill="#d3d3d3"/><path d="M65.941,135.8v.844a.183.183,0,0,1-.2.2H64.647v4.211a.184.184,0,0,1-.2.2h-.918a.183.183,0,0,1-.2-.2v-4.165H62.262a.184.184,0,0,1-.2-.2v-.844a.184.184,0,0,1,.2-.2h3.477a.184.184,0,0,1,.2.156Z" transform="translate(-5.111 -11.189)" fill="#d3d3d3"/><path d="M77.221,141.251H76.184a.284.284,0,0,1-.248-.128l-1.376-1.734h-.5v1.661a.183.183,0,0,1-.211.2h-.872a.183.183,0,0,1-.2-.2v-5.257a.184.184,0,0,1,.2-.2h1.973a1.936,1.936,0,0,1,1.945,1.945,1.835,1.835,0,0,1-1,1.615l1.45,1.835C77.441,141.122,77.386,141.251,77.221,141.251Zm-3.156-2.991h.918a.734.734,0,0,0,0-1.459h-.918Z" transform="translate(-5.995 -11.185)" fill="#d3d3d3"/><path d="M88.738,141.251h-.991a.22.22,0,0,1-.229-.174l-.211-.716H85.324l-.211.716a.22.22,0,0,1-.229.174h-.991c-.147,0-.22-.083-.174-.229l1.716-5.257a.22.22,0,0,1,.229-.174h1.294a.229.229,0,0,1,.239.174l1.716,5.257C88.958,141.168,88.884,141.251,88.738,141.251Zm-1.835-2.1L86.269,137l-.633,2.147Z" transform="translate(-6.896 -11.185)" fill="#d3d3d3"/><path d="M96.042,135.59h.918a.183.183,0,0,1,.2.2v5.257a.183.183,0,0,1-.2.2h-.918a.183.183,0,0,1-.2-.2v-5.257a.184.184,0,0,1,.2-.2Z" transform="translate(-7.897 -11.185)" fill="#d3d3d3"/><path d="M107.355,135.59h.917a.184.184,0,0,1,.2.2v5.257a.183.183,0,0,1-.2.2h-.587a.284.284,0,0,1-.248-.138l-1.927-3.019v2.954a.184.184,0,0,1-.2.2h-.918a.183.183,0,0,1-.2-.2v-5.257a.184.184,0,0,1,.2-.2H105a.294.294,0,0,1,.248.128l1.927,3.028v-2.954a.184.184,0,0,1,.184-.2Z" transform="translate(-8.586 -11.185)" fill="#d3d3d3"/><path d="M115.982,135.59h.918a.184.184,0,0,1,.2.2v5.257a.184.184,0,0,1-.2.2h-.918a.183.183,0,0,1-.2-.2v-5.257a.183.183,0,0,1,.2-.2Z" transform="translate(-9.542 -11.185)" fill="#d3d3d3"/><path d="M127.263,135.59h.918a.184.184,0,0,1,.2.2v5.257a.183.183,0,0,1-.2.2h-.606a.284.284,0,0,1-.248-.138l-1.936-3.019v2.954a.184.184,0,0,1-.2.2h-.918a.183.183,0,0,1-.2-.2v-5.257a.183.183,0,0,1,.2-.2h.651a.294.294,0,0,1,.257.128l1.927,3.028v-2.954a.183.183,0,0,1,.156-.2Z" transform="translate(-10.226 -11.185)" fill="#d3d3d3"/><path d="M141.108,138.338v2.7a.183.183,0,0,1-.2.2H140.1a.183.183,0,0,1-.2-.2v-.5a2.055,2.055,0,0,1-1.725.771,2.817,2.817,0,0,1-2.753-2.945,2.872,2.872,0,0,1,2.945-2.936,2.808,2.808,0,0,1,2.753,1.835c0,.138,0,.229-.174.229h-.918a.248.248,0,0,1-.229-.147,1.624,1.624,0,0,0-1.349-.651,1.569,1.569,0,0,0-1.652,1.679,1.615,1.615,0,0,0,1.652,1.762,1.422,1.422,0,0,0,1.441-.918h-1.22a.184.184,0,0,1-.2-.2v-.734a.183.183,0,0,1,.2-.2h2.349a.183.183,0,0,1,.092.257Z" transform="translate(-11.162 -11.172)" fill="#d3d3d3"/></g></g></svg>