<svg xmlns="http://www.w3.org/2000/svg" width="148.857" height="89.979" viewBox="0 0 148.857 89.979">
  <g id="ic_login_logo" transform="translate(0.01)">
    <g id="Layer_1" data-name="Layer 1" transform="translate(-0.01)">
      <g id="uTeZpE" transform="translate(36.785 63.663)">
        <path id="Path_35898" data-name="Path 35898" d="M54.015,94.5c-.066-.175-.132-.329-.19-.475-.1-.27-.2-.548-.314-.818s-.263-.679-.4-1.023a1.461,1.461,0,0,0-.1-.27.263.263,0,0,0-.124-.11c-.219-.095-.438-.175-.665-.263l-.811-.314-.928-.358-.139-.058h0l1.315-.511,1.162-.446a.343.343,0,0,0,.2-.256c.124-.314.248-.628.365-.942s.27-.731.4-1.045c.058-.146.124-.292.19-.468.037.08.058.146.088.212.168.446.343.891.519,1.33s.256.687.395,1.023a.285.285,0,0,0,.146.132c.2.095.424.175.636.256l.789.307,1.052.409h.058l-.526.212-.782.3-1.067.416a.783.783,0,0,1-.139.051c-.139.037-.175.153-.219.27-.117.307-.241.621-.358.935l-.409,1.045A1.759,1.759,0,0,1,54.015,94.5Z" transform="translate(-50.34 -87.14)"/>
      </g>
      <path id="Path_35899" data-name="Path 35899" d="M155.545,94.5c-.066-.175-.132-.329-.19-.475-.1-.27-.2-.548-.314-.818s-.263-.679-.4-1.023a1.458,1.458,0,0,0-.1-.27.285.285,0,0,0-.117-.11l-.672-.263-.811-.314-.921-.358-.146-.058h0l1.315-.511,1.162-.446a.343.343,0,0,0,.2-.256c.124-.314.248-.628.365-.942s.27-.731.4-1.045c.058-.146.124-.292.19-.468a.544.544,0,0,0,.088.212c.175.446.343.891.519,1.33s.256.687.395,1.023a.285.285,0,0,0,.146.132c.2.095.424.175.636.256l.789.307,1.052.409h.058l-.526.212-.782.3-1.067.416a.781.781,0,0,1-.139.051c-.139.037-.175.153-.219.27-.117.307-.241.621-.358.935l-.409,1.045A1.521,1.521,0,0,1,155.545,94.5Z" transform="translate(-40.909 -23.477)"/>
      <path id="Path_35900" data-name="Path 35900" d="M56.124,116.5a1.512,1.512,0,0,1-.38,1.14,1.752,1.752,0,0,1-2.2,0,1.571,1.571,0,0,1-.475-1.14v-10.8A1.629,1.629,0,0,1,54.6,104.18a1.578,1.578,0,0,1,1.147.475,1.461,1.461,0,0,1,.38,1.052Z" transform="translate(-14.291 -28.067)"/>
      <path id="Path_35901" data-name="Path 35901" d="M130.78,112.684a2.776,2.776,0,0,0,.19.855,4.792,4.792,0,0,0,.665.767,3.653,3.653,0,0,0,1.052.475,2.849,2.849,0,0,0,1.242.19h9.636a4.639,4.639,0,0,0,1.717-.285,3.346,3.346,0,0,0,1.052-.957,2.579,2.579,0,0,0,.57-1.147,5.561,5.561,0,0,0,.19-1.235v-5.64a1.549,1.549,0,0,1,.482-1.052,1.527,1.527,0,0,1,1.052-.475,1.629,1.629,0,0,1,1.527,1.527v5.443a6.956,6.956,0,0,1-.38,2.389,6.407,6.407,0,0,1-1.242,2.192,6.575,6.575,0,0,1-1.914,1.717,4.961,4.961,0,0,1-2.484.577H133.074a5.041,5.041,0,0,1-2.1-.387,5.581,5.581,0,0,1-1.717-1.235,5.355,5.355,0,0,1-1.147-1.724,4.88,4.88,0,0,1-.387-2,1.41,1.41,0,0,1,.387-1.052,1.761,1.761,0,0,1,1.147-.482,1.534,1.534,0,0,1,1.045.482A1.505,1.505,0,0,1,130.78,112.684Z" transform="translate(-34.402 -28.068)"/>
      <path id="Path_35902" data-name="Path 35902" d="M21.681,111.149a7.613,7.613,0,0,0-.19-1.337,3.653,3.653,0,0,0-.57-1.242,2.71,2.71,0,0,0-1.052-.957,3.448,3.448,0,0,0-1.819-.38H6.573a3.426,3.426,0,0,0-1.812.38,3.529,3.529,0,0,0-1.052.957,3.653,3.653,0,0,0-.57,1.242,6.838,6.838,0,0,0-.095,1.337V116.5a1.578,1.578,0,0,1-.482,1.14,1.41,1.41,0,0,1-1.052.387,1.52,1.52,0,0,1-1.147-.387A1.512,1.512,0,0,1,0,116.5v-5.355a7.554,7.554,0,0,1,.38-2.484,9.95,9.95,0,0,1,1.147-2.192,5.925,5.925,0,0,1,1.819-1.629,4.384,4.384,0,0,1,2.484-.665H19.2a4.6,4.6,0,0,1,2.294.665,7.43,7.43,0,0,1,1.724,1.724,7.985,7.985,0,0,1,1.14,2.192,9.388,9.388,0,0,1,.387,2.389V116.5a1.549,1.549,0,0,1-.482,1.14,1.4,1.4,0,0,1-1.045.387,1.352,1.352,0,0,1-1.534-1.527Z" transform="translate(0.01 -28.066)"/>
      <path id="Path_35903" data-name="Path 35903" d="M98.139,111.149a7.612,7.612,0,0,0-.19-1.337,3.521,3.521,0,0,0-.577-1.242,2.637,2.637,0,0,0-1.045-.957,3.448,3.448,0,0,0-1.819-.38H83.045a3.448,3.448,0,0,0-1.819.38A3.558,3.558,0,0,0,79.6,109.8a6.839,6.839,0,0,0-.095,1.337V116.5a1.571,1.571,0,0,1-.475,1.14,1.461,1.461,0,0,1-1.052.387,1.352,1.352,0,0,1-1.527-1.527v-5.355a7.554,7.554,0,0,1,.38-2.484,9.644,9.644,0,0,1,1.147-2.192,5.9,5.9,0,0,1,1.79-1.622,4.449,4.449,0,0,1,2.484-.665H95.633a4.625,4.625,0,0,1,2.294.665,7.394,7.394,0,0,1,1.717,1.724,7.8,7.8,0,0,1,1.147,2.192,9.724,9.724,0,0,1,.387,2.389V116.5a1.578,1.578,0,0,1-.482,1.14,1.461,1.461,0,0,1-1.052.387,1.352,1.352,0,0,1-1.527-1.527Z" transform="translate(-20.587 -28.067)"/>
      <path id="Path_35904" data-name="Path 35904" d="M195.179,115.68a1.666,1.666,0,0,0-.38-.475l-7.744-10.316a3.105,3.105,0,0,0-1.337-1.147,4.2,4.2,0,0,0-1.812-.482,4.3,4.3,0,0,0-1.914.482,4.508,4.508,0,0,0-1.461,1.242L172.86,115.4a1.205,1.205,0,0,0-.38.862,1.571,1.571,0,0,0,.475,1.14,1.461,1.461,0,0,0,1.052.387,1.666,1.666,0,0,0,1.242-.577l2.447-3.258h12.113a2.272,2.272,0,0,0,.314,0l2.418,3.266a1.658,1.658,0,0,0,1.242.577,1.3,1.3,0,0,0,1.052-.387,1.278,1.278,0,0,0,.475-1.14,1.22,1.22,0,0,0-.132-.584Zm-7.342-4.778h-7.949l3.134-4.121a1.008,1.008,0,0,1,.884-.365h.08a1.074,1.074,0,0,1,.592.285h0Z" transform="translate(-46.461 -27.82)"/>
      <path id="Path_35905" data-name="Path 35905" d="M72,45.22c.731,3.156,1.666,6.261,2.7,9.315a63.428,63.428,0,0,0,3.726,8.9,25.125,25.125,0,0,0,5.691,7.635A10.075,10.075,0,0,0,93,73.486a9.79,9.79,0,0,1-4.844.212,11.237,11.237,0,0,1-4.384-2.192A25.014,25.014,0,0,1,77.8,63.77,62.545,62.545,0,0,1,72,45.22Z" transform="translate(-19.391 -12.183)"/>
      <path id="Path_35906" data-name="Path 35906" d="M79.19,67.11a12.749,12.749,0,0,0,5.75,4.3,18.63,18.63,0,0,0,7.218.964c-.614.117-1.227.256-1.848.358a18.127,18.127,0,0,1-1.892.073,12.69,12.69,0,0,1-3.741-.731A9.8,9.8,0,0,1,79.19,67.11Z" transform="translate(-21.328 -18.08)"/>
      <path id="Path_35907" data-name="Path 35907" d="M78.32,66.17A15.73,15.73,0,0,0,81.739,70.8a14.013,14.013,0,0,0,4.815,3,17.169,17.169,0,0,0,5.618.972c.957.051,1.921-.095,2.922-.132l2.922-.424L95.182,75c-.979.11-1.951.321-2.922.336a16.277,16.277,0,0,1-5.845-.847A13.4,13.4,0,0,1,78.32,66.17Z" transform="translate(-21.093 -17.827)"/>
      <path id="Path_35908" data-name="Path 35908" d="M81,70.88a19.12,19.12,0,0,0,2.674,3.653,13.063,13.063,0,0,0,3.507,2.732A9.739,9.739,0,0,0,91.4,78.515a15.97,15.97,0,0,0,4.508-.321,11.689,11.689,0,0,1-4.537.884,9.614,9.614,0,0,1-4.53-1.154A12.91,12.91,0,0,1,81,70.88Z" transform="translate(-21.815 -19.096)"/>
      <path id="Path_35909" data-name="Path 35909" d="M77.34,62.15a8.672,8.672,0,0,0,2.586,3.879,11.39,11.39,0,0,0,4.047,2.257,20.244,20.244,0,0,0,4.588,1.059c1.578.175,3.163.256,4.771.321l-2.36.248H88.547a18.564,18.564,0,0,1-4.785-.928,11.251,11.251,0,0,1-4.223-2.564A7.54,7.54,0,0,1,77.34,62.15Z" transform="translate(-20.829 -16.744)"/>
      <path id="Path_35910" data-name="Path 35910" d="M72,29.461a19.331,19.331,0,0,1,2.323-8.833,18.783,18.783,0,0,1,6.261-6.962,19.8,19.8,0,0,1,8.767-3.156,26.3,26.3,0,0,1,4.61-.11,42.943,42.943,0,0,1,4.486.8c-1.52.2-3,.241-4.464.395l-2.192.358a11.536,11.536,0,0,0-2.126.424c-.731.2-1.381.387-2.075.548a15.36,15.36,0,0,0-1.987.782,10.1,10.1,0,0,0-1.907.9,12.544,12.544,0,0,0-1.8,1.081C77.187,18.751,74.016,23.821,72,29.461Z" transform="translate(-19.391 -2.787)"/>
      <path id="Path_35911" data-name="Path 35911" d="M120.57,15.3a10.322,10.322,0,0,1,6.853-3.879,18.323,18.323,0,0,1,4.047-.19c.672.037,1.337.161,2.009.226a10.411,10.411,0,0,0,1.717.044c2.272-.095,4.011-1.848,4.99-4.113A27.031,27.031,0,0,0,142.071,0a17.373,17.373,0,0,1-.563,7.912,8.891,8.891,0,0,1-2.192,3.653,6.575,6.575,0,0,1-4.011,1.79,12.508,12.508,0,0,1-2.192-.11l-1.863-.263a21.918,21.918,0,0,0-3.726-.124A12,12,0,0,0,120.57,15.3Z" transform="translate(-32.476)"/>
      <path id="Path_35912" data-name="Path 35912" d="M149.493,1.92a17.454,17.454,0,0,1,0,5.012,13.487,13.487,0,0,1-1.571,4.866,7.4,7.4,0,0,1-3.887,3.448A7.62,7.62,0,0,1,138.98,15a9.836,9.836,0,0,0,4.7-.621,7.591,7.591,0,0,0,3.178-3.185C148.383,8.459,148.982,5.186,149.493,1.92Z" transform="translate(-37.436 -0.517)"/>
      <path id="Path_35913" data-name="Path 35913" d="M83.8,60.161a11.945,11.945,0,0,1,3.134-.679,1.879,1.879,0,0,1,.292,0c.263.066,1.622.38,3.142.731h.168l.373.088h.132l.891.175a10.226,10.226,0,0,0,1.264.1c.672.058,1.213.095,1.717.117h.935a35.3,35.3,0,0,0,6.977-.687.913.913,0,0,0-.175-1.812h-1.373l.416-.343c.168-.132.336-.27.5-.416l.08-.073a15.5,15.5,0,0,0,3.865-9.351.9.9,0,0,0-.351-.782.928.928,0,0,0-.847-.146l-3.273,1.1c-.833.19-8.175,1.87-12.829,1.87h-.226c-4.471-.058-9.417-2.038-11.339-2.922a.942.942,0,0,0-1.184.416c-.146.285-1.359,2.922,1.4,8.036l.19.329c.161.27.314.541.5.8a13.633,13.633,0,0,0,2.418,2.659l.095.073A3.814,3.814,0,0,0,83.8,60.161ZM81.09,58.97a13.019,13.019,0,0,1-2.316-2.535c-.175-.256-.321-.511-.475-.731l-.168-.292c-2.623-4.895-1.461-7.262-1.4-7.364l.08-.146.153.066c2.44,1.074,7.189,2.922,11.631,2.922h.234c4.983,0,12.953-1.878,13.026-1.9l3.565-1.191v.27a14.729,14.729,0,0,1-3.653,8.906c-.241.212-.468.4-.731.592a9.87,9.87,0,0,1-2.608,1.461c1.4,0,2.813,0,4.223-.051v.365a34.821,34.821,0,0,1-6.831.672h-.913c-.511,0-1.052-.058-1.7-.117a9.788,9.788,0,0,1-1.162-.088l-.884-.175H91a2.1,2.1,0,0,1-.292-.066l-.219-.051c-1.666-.351-3.12-.694-3.134-.694a2.024,2.024,0,0,0-.453-.044,12.9,12.9,0,0,0-3.317.731,3.032,3.032,0,0,1-2.5-.548Z" transform="translate(-20.386 -12.673)"/>
      <path id="Path_35922" data-name="Path 35922" d="M108.579,50.87c-3,.935-10.177,2.805-13.289,3.77,1.052.387,1.052.387,1.074,1a3.6,3.6,0,0,0,3,3.441,3.653,3.653,0,0,0,4-2.075,3.821,3.821,0,0,0-.256-3.6Zm-7.752,5.487a1.023,1.023,0,0,1-1.1-1.052,1.1,1.1,0,0,1,1.125-1.052,1.081,1.081,0,0,1,1.1,1.1,1.052,1.052,0,0,1-1.132,1.008Z" transform="translate(-25.665 -13.705)"/>
      <path id="Path_35923" data-name="Path 35923" d="M86.683,55.267,80.51,52.52l-.11.153a2.119,2.119,0,0,0,.365.5,1.461,1.461,0,0,1,.541,1.688,3.879,3.879,0,0,0,1.067,3.653A2.25,2.25,0,0,0,86.1,58.3a3.9,3.9,0,0,0,.584-2.769,1.22,1.22,0,0,1,0-.263Zm-2,1.724c-.541.132-.84-.278-.862-.826s.19-1.052.8-.979c.351.044.665.46,1.213.869-.526.468-.8.855-1.154.935Z" transform="translate(-21.654 -14.15)"/>
    </g>
  </g>
</svg>
