<svg xmlns="http://www.w3.org/2000/svg" width="20.685" height="15.51" viewBox="0 0 20.685 15.51"><g transform="translate(-0.011 0.027)"><g transform="translate(0.011 -0.027)"><path d="M10.342,1.7H1.051a1.659,1.659,0,0,1-.374-.025.862.862,0,0,1,.168-1.7h18.8A1.8,1.8,0,0,1,20.017,0a.86.86,0,0,1-.142,1.7c-.233.012-.467,0-.7,0Z" transform="translate(-0.011 0.027)" fill="#221e30"/><path d="M10.4,95.771h9.289a1.753,1.753,0,0,1,.348.019.863.863,0,0,1-.119,1.7c-.063,0-.126,0-.188,0H1.036a.907.907,0,0,1-.921-.52.857.857,0,0,1,.719-1.2c.089-.007.18,0,.27,0Z" transform="translate(-0.039 -88.875)" fill="#221e30"/><path d="M10.388,191.58h9.4a.859.859,0,0,1,.879,1.151.838.838,0,0,1-.749.568c-.08.008-.162,0-.242,0H1.093a1.943,1.943,0,0,1-.349-.015.86.86,0,0,1,.111-1.7c.233-.012.467,0,.7,0Z" transform="translate(-0.037 -177.792)" fill="#221e30"/></g></g></svg>