<svg xmlns="http://www.w3.org/2000/svg" width="7.188" height="12.916" viewBox="0 0 7.188 12.916"><g transform="translate(-1023.161 -353.25)"><path d="M6.549,6.549.815,12.282a.478.478,0,0,1-.676-.676l5.4-5.4L.14.815A.478.478,0,1,1,.815.14L6.549,5.873A.478.478,0,0,1,6.549,6.549Z" transform="translate(1023.41 353.5)" fill="#232837"/><path d="M.484,12.666A.728.728,0,0,1-.04,11.433L5.182,6.211-.037.992A.728.728,0,0,1,.992-.037L6.726,5.7a.729.729,0,0,1,0,1.029L.992,12.459A.727.727,0,0,1,.484,12.666ZM.478.25A.228.228,0,0,0,.317.639L5.889,6.211.317,11.783a.228.228,0,0,0,.325.319l5.73-5.73a.228.228,0,0,0,0-.322L.639.317A.226.226,0,0,0,.478.25Z" transform="translate(1023.41 353.5)" fill="#232837"/></g></svg>