<svg xmlns="http://www.w3.org/2000/svg" xmlns:xlink="http://www.w3.org/1999/xlink" width="29" height="28" viewBox="0 0 29 28"><defs><clipPath id="a"><rect width="22.153" height="23.86" fill="#fff"/></clipPath></defs><g transform="translate(-1307 -15)"><rect width="29" height="28" rx="6" transform="translate(1307 15)" fill="#dff1eb"/><g transform="translate(1310.25 19.141)" clip-path="url(#a)"><path d="M954.2,325.845l-.035-.336a.23.23,0,0,0-.249-.214l-.019,0-.336-2.891a1.622,1.622,0,0,0-1.032-1.357l-2.145-.77a.37.37,0,0,0-.465.214l-.012.027-.526-.189a.821.821,0,0,1-.522-.781v-1.327l1.645-.738a2.478,2.478,0,0,0,1.41-2.278V314.8a1.192,1.192,0,0,0,1.146-1.234,1.291,1.291,0,0,0-.238-.753,31.877,31.877,0,0,0,.619-4.595,2.392,2.392,0,0,0-1.528-2.057c-2-.925-4.517-1.2-5.346-2.055v0h0v0c-.829.855-3.342,1.13-5.346,2.055a2.392,2.392,0,0,0-1.528,2.057,31.862,31.862,0,0,0,.619,4.6,1.292,1.292,0,0,0-.237.752,1.192,1.192,0,0,0,1.146,1.234v.411a2.477,2.477,0,0,0,1.41,2.278l1.645.739v1.326a.82.82,0,0,1-.522.781l-.526.189-.011-.027a.37.37,0,0,0-.465-.214l-2.144.77a1.621,1.621,0,0,0-1.033,1.357l-.335,2.891-.02,0a.229.229,0,0,0-.248.214l-.035.336a.239.239,0,0,0,.2.268l.559.067v.958a.8.8,0,0,0,.764.823h12.222a.8.8,0,0,0,.764-.823v-.958l.559-.067A.239.239,0,0,0,954.2,325.845Z" transform="translate(-935.493 -304.1)" fill="#f6b47b"/><path d="M945.568,320.575v1.361a.839.839,0,0,1-.371.7,5.056,5.056,0,0,0,4.954-2.066Z" transform="translate(-936.783 -306.486)" fill="#e2a071"/><path d="M953.64,308.213a2.393,2.393,0,0,0-1.528-2.057c-2-.925-4.517-1.2-5.346-2.055v0h0v0c-.829.855-3.341,1.13-5.346,2.055a2.394,2.394,0,0,0-1.528,2.057,40.8,40.8,0,0,0,.764,5.348h12.221A40.823,40.823,0,0,0,953.64,308.213Z" transform="translate(-935.689 -304.1)" fill="#9d6e48"/><path d="M946.764,304.1v0c-.829.855-3.341,1.13-5.346,2.055a2.394,2.394,0,0,0-1.528,2.057,40.8,40.8,0,0,0,.764,5.348h3.438v-3.7c0-2.742,2.673-4.045,2.673-5.759h0Z" transform="translate(-935.689 -304.1)" fill="#8d5f3d"/><path d="M953.635,325.143a1.622,1.622,0,0,0-1.033-1.357l-2.145-.77a.371.371,0,0,0-.465.214,9.736,9.736,0,0,1-3.352,4.175,9.737,9.737,0,0,1-3.352-4.175.371.371,0,0,0-.466-.214l-2.144.77a1.622,1.622,0,0,0-1.033,1.357l-.364,3.13,3.157.366V330.7h8.4v-2.057l3.156-.366Z" transform="translate(-935.565 -306.836)" fill="#4f6e7f"/><path d="M952.212,313.233v-.823a1.987,1.987,0,0,0-1.909-2.058h-6.875a1.988,1.988,0,0,0-1.91,2.058v.823a1.237,1.237,0,0,0,0,2.468v.411a2.478,2.478,0,0,0,1.411,2.278L945.4,319.5a3.568,3.568,0,0,0,2.938,0l2.468-1.107a2.477,2.477,0,0,0,1.41-2.278V315.7a1.237,1.237,0,0,0,0-2.468Z" transform="translate(-935.789 -305.005)" fill="#fdc88e"/><path d="M945.084,315.436a.4.4,0,0,1-.382-.411v-.411a.383.383,0,1,1,.764,0v.411A.4.4,0,0,1,945.084,315.436Z" transform="translate(-936.681 -305.563)" fill="#623f33"/><path d="M951.818,315.436a.4.4,0,0,1-.382-.411v-.411a.383.383,0,1,1,.764,0v.411A.4.4,0,0,1,951.818,315.436Z" transform="translate(-938.068 -305.563)" fill="#623f33"/><path d="M948.054,318.814a3.013,3.013,0,0,1-1.743-.493.431.431,0,0,1-.1-.572.365.365,0,0,1,.53-.109,2.628,2.628,0,0,0,2.626,0,.366.366,0,0,1,.531.109.432.432,0,0,1-.1.572A3.008,3.008,0,0,1,948.054,318.814Z" transform="translate(-936.978 -306.05)" fill="#e2a071"/><path d="M943.523,317.545a2.013,2.013,0,0,1-.477-1.318V310.4a2.026,2.026,0,0,0-1.528,2.016v.823a1.237,1.237,0,0,0,0,2.468v.411a2.477,2.477,0,0,0,1.411,2.278l2.468,1.107a3.476,3.476,0,0,0,.368.141A16.344,16.344,0,0,1,943.523,317.545Z" transform="translate(-935.789 -305.013)" fill="#f6b47b"/><path d="M942.431,329.175v-.931a1.722,1.722,0,0,0-.373-1.078l-2.1-2.613a1.7,1.7,0,0,0-.318.815l-.4,3.437C939.846,328.845,941.462,329.049,942.431,329.175Z" transform="translate(-935.555 -307.062)" fill="#33546a"/><path d="M942.368,329.261l-3.148-.377a.23.23,0,0,0-.248.214l-.035.336a.239.239,0,0,0,.2.268l3.232.387Z" transform="translate(-935.493 -307.689)" fill="#4f6e7f"/><path d="M953.841,329.175v-.931a1.723,1.723,0,0,1,.373-1.078l2.1-2.613a1.718,1.718,0,0,1,.318.815l.4,3.437C956.425,328.845,954.81,329.049,953.841,329.175Z" transform="translate(-938.564 -307.062)" fill="#33546a"/><path d="M953.841,329.261l3.148-.377a.23.23,0,0,1,.248.214l.034.336a.237.237,0,0,1-.2.268l-3.232.387Z" transform="translate(-938.564 -307.689)" fill="#4f6e7f"/><path d="M950.83,310.113a8.993,8.993,0,0,1,2.391,2.674,5.845,5.845,0,0,0-.7-2.674Z" transform="translate(-937.943 -304.971)" fill="#9d6e48"/></g></g></svg>