<svg xmlns="http://www.w3.org/2000/svg" width="11.113" height="14.818" viewBox="0 0 11.113 14.818"><g transform="translate(-3)"><path d="M12.724,18.261H4.389A1.391,1.391,0,0,1,3,16.872V10.389A1.391,1.391,0,0,1,4.389,9h8.335a1.391,1.391,0,0,1,1.389,1.389v6.483A1.391,1.391,0,0,1,12.724,18.261ZM4.389,9.926a.464.464,0,0,0-.463.463v6.483a.464.464,0,0,0,.463.463h8.335a.464.464,0,0,0,.463-.463V10.389a.464.464,0,0,0-.463-.463Z" transform="translate(0 -3.443)" fill="#606060"/><path d="M12.946,6.483a.463.463,0,0,1-.463-.463V3.7a2.778,2.778,0,1,0-5.557,0V6.02A.463.463,0,0,1,6,6.02V3.7a3.7,3.7,0,1,1,7.409,0V6.02A.463.463,0,0,1,12.946,6.483Z" transform="translate(-1.148)" fill="#606060"/><path d="M11.235,15.47a1.235,1.235,0,1,1,1.235-1.235A1.236,1.236,0,0,1,11.235,15.47Zm0-1.544a.309.309,0,1,0,.309.309A.309.309,0,0,0,11.235,13.926Z" transform="translate(-2.678 -4.974)" fill="#606060"/><path d="M11.713,18.374a.463.463,0,0,1-.463-.463v-1.7a.463.463,0,0,1,.926,0v1.7A.463.463,0,0,1,11.713,18.374Z" transform="translate(-3.156 -6.026)" fill="#606060"/></g></svg>