<svg xmlns="http://www.w3.org/2000/svg" width="72" height="72" viewBox="0 0 72 72"><g transform="translate(-1795 -296)"><circle cx="36" cy="36" r="36" transform="translate(1795 296)" fill="#156a86"/><g transform="translate(1815 316)"><path d="M29.128,34.226c-.618-.1-1.235-.2-1.847-.314a28.753,28.753,0,0,1-8.6-2.973A36.6,36.6,0,0,1,3.03,15.035,29.175,29.175,0,0,1,.014,4.981,1.175,1.175,0,0,1,.732,3.669Q4.011,2.12,7.295.581a1.152,1.152,0,0,1,1.554.441Q10.9,4.2,12.941,7.375a1.167,1.167,0,0,1-.183,1.588c-.783.794-1.555,1.588-2.364,2.353a1.522,1.522,0,0,0-.464,1.521,13.515,13.515,0,0,0,2.994,6.2,14.969,14.969,0,0,0,6.03,4.532,22.019,22.019,0,0,0,2.722.76,1.145,1.145,0,0,0,1.13-.391c.794-.806,1.6-1.606,2.4-2.406a1.189,1.189,0,0,1,1.712-.192q3.11,2,6.215,4a1.183,1.183,0,0,1,.479,1.65q-1.519,3.24-3.042,6.477a1.494,1.494,0,0,1-.854.769Z" transform="translate(-0.002 -0.405)" fill="#fff"/><path d="M196.5,17.173a1.392,1.392,0,0,1-.72.812,1.151,1.151,0,0,1-1.6-1.065,14.465,14.465,0,0,0-.643-4.224A14.36,14.36,0,0,0,182.2,2.583a13.739,13.739,0,0,0-2.49-.241,1.216,1.216,0,0,1-1.281-1.213A1.187,1.187,0,0,1,179.776,0a16.922,16.922,0,0,1,16.4,13.675c.123.635.176,1.283.265,1.925.012.088.037.169.056.253Z" transform="translate(-162.684 0.001)" fill="#fff"/><path d="M190.624,76.621a4.592,4.592,0,0,1-.006.723,1.154,1.154,0,0,1-2.284-.043c-.072-.577-.078-1.165-.176-1.736a8.727,8.727,0,0,0-7.432-7.08c-.36-.044-.723-.059-1.085-.079a1.176,1.176,0,1,1,.08-2.342,11.1,11.1,0,0,1,10.788,9.377c.064.39.088.787.128,1.18Z" transform="translate(-162.656 -60.234)" fill="#fff"/></g></g></svg>