<svg xmlns="http://www.w3.org/2000/svg" width="15.122" height="14.148" viewBox="0 0 15.122 14.148"><g transform="translate(-1222.432 -227.75)"><path d="M36.546,42.415A.975.975,0,0,0,35.4,43.994a12.341,12.341,0,0,1,3.782,5.079.975.975,0,0,0,1.773.01,34.068,34.068,0,0,1,8.324-11.369.975.975,0,0,0-1.268-1.481A35.043,35.043,0,0,0,40.063,46.5,12.727,12.727,0,0,0,36.546,42.415Z" transform="translate(1187.682 192)" fill="#34c759"/><path d="M48.647,35.75a1.225,1.225,0,0,1,.8,2.155,33.8,33.8,0,0,0-8.26,11.284,1.225,1.225,0,0,1-2.228-.013,12,12,0,0,0-3.7-4.979,1.225,1.225,0,0,1,.719-2.217,1.205,1.205,0,0,1,.718.233,12.572,12.572,0,0,1,3.358,3.774,34.938,34.938,0,0,1,7.8-9.942A1.225,1.225,0,0,1,48.647,35.75ZM40.074,49.4a.709.709,0,0,0,.657-.419,34.312,34.312,0,0,1,8.388-11.453.725.725,0,1,0-.943-1.1,34.66,34.66,0,0,0-7.893,10.19l-.212.4-.226-.4a12.387,12.387,0,0,0-3.446-4,.719.719,0,0,0-.424-.138.725.725,0,0,0-.426,1.312,12.474,12.474,0,0,1,3.864,5.179A.708.708,0,0,0,40.074,49.4Z" transform="translate(1187.682 192)" fill="#e1e2e2"/></g></svg>