<svg xmlns="http://www.w3.org/2000/svg" width="11.871" height="14.229" viewBox="0 0 11.871 14.229"><g transform="translate(0 0)"><path d="M90.459,6.854a3.316,3.316,0,0,0,2.423-1,3.316,3.316,0,0,0,1-2.423,3.316,3.316,0,0,0-1-2.423,3.426,3.426,0,0,0-4.846,0,3.316,3.316,0,0,0-1,2.423,3.316,3.316,0,0,0,1,2.423A3.317,3.317,0,0,0,90.459,6.854Zm-1.833-5.26a2.592,2.592,0,0,1,3.667,0,2.478,2.478,0,0,1,.76,1.833,2.478,2.478,0,0,1-.76,1.833,2.592,2.592,0,0,1-3.667,0,2.477,2.477,0,0,1-.76-1.833,2.477,2.477,0,0,1,.76-1.833Zm0,0" transform="translate(-84.613 0)" fill="#606060"/><path d="M11.842,251.384a8.464,8.464,0,0,0-.115-.9,7.084,7.084,0,0,0-.221-.9,4.465,4.465,0,0,0-.372-.843,3.178,3.178,0,0,0-.56-.73,2.47,2.47,0,0,0-.8-.506,2.782,2.782,0,0,0-1.028-.186,1.043,1.043,0,0,0-.557.236c-.167.109-.362.235-.58.374a3.326,3.326,0,0,1-.751.331,2.915,2.915,0,0,1-1.837,0,3.315,3.315,0,0,1-.75-.331c-.216-.138-.411-.264-.581-.374a1.042,1.042,0,0,0-.557-.236A2.778,2.778,0,0,0,2.1,247.5a2.468,2.468,0,0,0-.805.506,3.179,3.179,0,0,0-.56.73,4.473,4.473,0,0,0-.372.843,7.1,7.1,0,0,0-.221.9,8.408,8.408,0,0,0-.115.9c-.019.272-.028.554-.028.84a2.363,2.363,0,0,0,.7,1.787,2.526,2.526,0,0,0,1.808.659H9.361a2.526,2.526,0,0,0,1.808-.659,2.362,2.362,0,0,0,.7-1.788c0-.287-.01-.569-.029-.84Zm-1.248,2.024a1.7,1.7,0,0,1-1.233.43H2.51a1.7,1.7,0,0,1-1.233-.43,1.543,1.543,0,0,1-.443-1.183c0-.267.009-.53.026-.783a7.583,7.583,0,0,1,.1-.81,6.262,6.262,0,0,1,.194-.8,3.642,3.642,0,0,1,.3-.686,2.356,2.356,0,0,1,.412-.54,1.639,1.639,0,0,1,.536-.333,1.919,1.919,0,0,1,.657-.127c.029.016.081.045.165.1.171.112.369.239.587.379a4.132,4.132,0,0,0,.942.421,3.749,3.749,0,0,0,2.349,0,4.137,4.137,0,0,0,.943-.421c.224-.143.416-.267.587-.378.084-.055.136-.085.165-.1a1.92,1.92,0,0,1,.657.127,1.641,1.641,0,0,1,.535.333,2.35,2.35,0,0,1,.412.54,3.63,3.63,0,0,1,.3.685,6.247,6.247,0,0,1,.195.8,7.646,7.646,0,0,1,.1.81h0c.018.252.027.515.027.782a1.543,1.543,0,0,1-.443,1.183Zm0,0" transform="translate(0 -240.443)" fill="#606060"/></g></svg>