<svg xmlns="http://www.w3.org/2000/svg" width="72" height="72" viewBox="0 0 72 72"><g transform="translate(-1795 -102)"><circle cx="36" cy="36" r="36" transform="translate(1795 102)" fill="#156a86"/><g transform="translate(1812 119)"><path d="M0,20.664V18.372c.024-.134.052-.267.07-.4.1-.7.147-1.415.28-2.112A19.059,19.059,0,0,1,5.64,5.805,19.064,19.064,0,0,1,16.155.3c.736-.127,1.48-.205,2.22-.3h2.292c.111.022.221.047.332.066,1.232.211,2.492.321,3.7.646a19.511,19.511,0,0,1,14,22.455,18.977,18.977,0,0,1-5.951,10.688,19.066,19.066,0,0,1-15.916,4.989A18.632,18.632,0,0,1,6.667,34.2,19.109,19.109,0,0,1,.3,22.878C.172,22.145.1,21.4,0,20.664Zm11.774-8.5a30.227,30.227,0,0,0-.806,6.189h7.384v-5.73Zm16.3,6.19a29.712,29.712,0,0,0-.8-6.14l-6.589.416v5.724Zm-25.8,0H8.563q.421-3.319.829-6.536c-1.417-.351-2.865-.7-4.315-1.08-.261-.069-.374-.032-.507.2a16.33,16.33,0,0,0-1.776,4.475c-.216.956-.347,1.934-.52,2.937Zm28.2,2.332-.835,6.435,4.746,1.116a16.926,16.926,0,0,0,2.314-7.55Zm3.915-9.869L29.66,11.874l.814,6.473H36.7a16.935,16.935,0,0,0-2.316-7.532ZM20.683,26.3l6.581.453a30.31,30.31,0,0,0,.805-6.058H20.683Zm-8.914.407,6.584-.411v-5.61H10.967a30.12,30.12,0,0,0,.8,6.02ZM2.376,20.685a.5.5,0,0,0-.023.122,16.582,16.582,0,0,0,2.172,7.174c.049.086.275.132.4.105,1.212-.269,2.418-.562,3.629-.839.3-.069.609-.112.842-.154-.279-2.168-.547-4.269-.82-6.408ZM20.693,2.475v7.846l5.941-.357c-.191-.5-.328-.907-.5-1.3a14.188,14.188,0,0,0-2.851-4.553A5.891,5.891,0,0,0,20.693,2.475Zm-2.34,33.964V28.608l-5.9.352a15.462,15.462,0,0,0,3.056,5.587A6.428,6.428,0,0,0,18.354,36.439Zm0-33.962a5.168,5.168,0,0,0-2.005,1.092A13.021,13.021,0,0,0,12.892,8.69c-.16.382-.294.771-.466,1.224l5.928.4ZM20.689,28.61v7.881c3.378-1.407,4.679-4.362,5.947-7.491ZM6.01,30.132c1.146,1.915,5.885,5.39,7.286,5.356a19.962,19.962,0,0,1-3.2-6.207Zm19.768,5.392a16.761,16.761,0,0,0,7.231-5.29l-4.087-.9a21.021,21.021,0,0,1-3.145,6.191ZM33.009,8.8a17.272,17.272,0,0,0-7.092-5.286c.578.977,1.2,1.924,1.711,2.925s.91,2.085,1.385,3.193ZM13.165,3.533A16.961,16.961,0,0,0,6.112,8.7l4.011.879A20.764,20.764,0,0,1,13.165,3.533Z" fill="#fff"/></g></g></svg>