<svg xmlns="http://www.w3.org/2000/svg" width="47" height="47" viewBox="0 0 47 47">
  <g id="Group_20895" data-name="Group 20895" transform="translate(-314 -745)">
    <rect id="Rectangle_5929" data-name="Rectangle 5929" width="47" height="47" rx="23.5" transform="translate(314 745)" fill="#156985"/>
    <path id="Rectangle_5929_-_Outline" data-name="Rectangle 5929 - Outline" d="M23.5,1a22.506,22.506,0,0,0-8.758,43.232A22.506,22.506,0,0,0,32.258,2.768,22.358,22.358,0,0,0,23.5,1m0-1A23.5,23.5,0,1,1,0,23.5,23.5,23.5,0,0,1,23.5,0Z" transform="translate(314 745)" fill="#105d77"/>
    <g id="Layer_2" data-name="Layer 2" transform="translate(328 759)">
      <g id="Layer_1" data-name="Layer 1">
        <path id="Path_35864" data-name="Path 35864" d="M0,9.736a1.025,1.025,0,0,1,.776-.753,1.572,1.572,0,0,1,.31-.022H8.961V8.725c0-2.5.01-5-.007-7.5A1.108,1.108,0,0,1,9.736,0h.388a1.019,1.019,0,0,1,.752.776A1.734,1.734,0,0,1,10.9,1.1q0,3.8,0,7.6v.255h.236c2.5,0,5,.01,7.5-.007a1.109,1.109,0,0,1,1.221.783v.388a1.023,1.023,0,0,1-.776.752,1.728,1.728,0,0,1-.327.022H10.9v.236c0,2.5-.01,5,.007,7.5a1.11,1.11,0,0,1-.782,1.221H9.736a1.028,1.028,0,0,1-.754-.776,1.612,1.612,0,0,1-.021-.31q0-3.809,0-7.619V10.9H8.726c-2.5,0-5-.01-7.5.007A1.11,1.11,0,0,1,0,10.124Z" fill="#fff"/>
      </g>
    </g>
  </g>
</svg>
